<svg width="791" height="791" viewBox="0 0 791 791" fill="none" xmlns="http://www.w3.org/2000/svg">
<path d="M375.201 647.048C372.031 648.809 366.014 649.612 362.447 649.705C347.029 650.118 331.554 649.937 316.123 649.933L232.59 649.921L164.677 649.945C151.786 649.952 138.472 650.184 125.616 649.555C119.957 649.273 112.128 646.604 107.015 644.228C92.0992 637.319 80.605 624.681 75.1402 609.174C73.2226 603.636 72.1385 597.838 71.9241 591.979C71.5301 582.52 71.8163 571.018 71.8171 561.44L71.8322 504.116L71.8202 331.457L71.8353 178.467L71.8102 130.027C71.792 111.846 69.991 95.4119 78.227 78.5522C85.1606 64.6409 97.3041 54.0281 112.018 49.0194C115.892 47.6985 123.649 46.1162 127.749 46.0582C142.159 45.8558 156.797 45.9844 171.202 45.9844L257.901 45.9794L324.54 45.9609C333.671 45.9508 350.976 45.4329 359.663 46.183C367.205 46.8994 374.548 49.0079 381.32 52.4017C394.384 59.0622 404.414 70.4514 409.373 84.2498C414.587 99.1943 413.046 117.87 413.05 133.731L413.093 199.535C413.1 203.772 412.54 220.941 413.591 223.513C433.486 216.819 455.358 216.103 474.507 225.616C474.836 225.778 475.16 225.943 475.484 226.11C475.341 227.401 474.689 229.25 474.299 230.554C481.208 233.521 486.708 235.451 494.189 235.219C497.639 231.277 496.426 229.98 497.893 225.922C507.325 219.157 528.61 218.747 539.618 220.909C546.435 222.247 576.835 230.274 575.387 239.487C572.22 244.19 563.051 243.943 557.991 245.665C564.87 247.737 575.267 252.506 581.362 256.662C590.94 247.383 598.109 243.451 604.223 230.172C605.323 227.811 606.289 225.39 607.116 222.92C608.599 218.474 609.445 212.499 611.762 208.638C613.094 206.421 616.455 209.352 617.443 210.888C625.728 220.787 629.996 243.372 628.501 256.112C627.238 266.868 625.145 274.603 620.637 284.323C625.593 289.477 630.208 293.652 634.828 299.229C664.753 335.333 676.398 375.889 675.923 422.107C675.2 492.571 633.889 549.111 572.316 580.45C567.291 583.007 558.879 586.101 554.418 588.994C561.336 607.336 552.031 631.139 534.056 639.346C532.728 639.953 528.197 641.869 527.498 642.645C527.683 647.098 525.953 663.571 525.069 668.086C533.473 680.951 531.511 682.739 517.41 682.087C514.664 685.269 514.026 686.517 510.156 688.131C507.484 687.73 504.819 687.309 502.154 686.868C501.095 687.343 497.608 689.56 496.986 690.36C494.715 693.284 490.505 691.171 489.242 692.21C485.634 695.172 484.151 699.007 478.524 698.181C470.568 696.161 468.15 697.586 460.738 701.333C450.723 699.915 452.507 699.116 443.871 702.769C440.457 704.21 425.363 702.53 421.516 701.356C414.452 706.848 413.626 707.06 405.306 703.449C403.522 704.202 391.626 710.22 391.336 706.095C390.993 701.19 392.758 694.527 393.356 689.479C390.494 685.849 385.815 676.077 384.103 671.728C380.362 662.879 377.932 656.194 375.201 647.048Z" fill="#FEFEFE"/>
<path d="M394.407 169.317L394.658 169.215L394.701 231.493C398.022 229.45 409.999 223.404 413.591 223.513C433.486 216.819 455.358 216.103 474.507 225.616C474.836 225.778 475.16 225.943 475.485 226.111C475.342 227.401 474.689 229.25 474.299 230.554C481.209 233.522 486.708 235.452 494.19 235.219C497.639 231.277 496.426 229.98 497.894 225.922C507.325 219.158 528.611 218.747 539.618 220.909C546.435 222.247 576.835 230.274 575.387 239.488C572.22 244.19 563.051 243.943 557.991 245.665C564.87 247.737 575.267 252.506 581.362 256.662C590.94 247.383 598.109 243.451 604.223 230.172C605.324 227.811 606.289 225.39 607.116 222.92C608.599 218.474 609.445 212.499 611.762 208.638C613.095 206.422 616.455 209.352 617.444 210.888C625.728 220.787 629.996 243.372 628.501 256.113C627.238 266.868 625.145 274.603 620.638 284.323C625.593 289.477 630.209 293.653 634.828 299.229C664.753 335.333 676.398 375.889 675.923 422.107C675.201 492.571 633.889 549.112 572.316 580.45C567.292 583.007 558.879 586.101 554.418 588.994C561.336 607.336 552.032 631.139 534.056 639.347C532.728 639.953 528.197 641.869 527.498 642.645C527.684 647.098 525.953 663.571 525.069 668.086C533.473 680.951 531.511 682.74 517.41 682.087C514.664 685.269 514.027 686.517 510.156 688.131C507.484 687.73 504.819 687.309 502.154 686.868C501.096 687.344 497.608 689.56 496.986 690.36C494.715 693.284 490.505 691.171 489.242 692.21C485.635 695.172 484.152 699.008 478.524 698.181C470.568 696.161 468.15 697.586 460.738 701.333C450.723 699.915 452.508 699.116 443.872 702.77C440.457 704.21 425.363 702.53 421.517 701.356C414.452 706.848 413.626 707.061 405.307 703.449C403.522 704.202 391.626 710.22 391.337 706.095C390.993 701.19 392.758 694.527 393.357 689.479C390.495 685.849 385.815 676.077 384.103 671.728C380.362 662.88 377.932 656.194 375.201 647.048C375.147 646.368 374.369 643.251 374.189 642.305C373.565 638.864 372.96 635.423 372.375 631.974C371.947 629.869 371.726 628.327 371.467 626.211C371.297 620.831 370.88 616.042 370.858 610.499C370.813 599.113 373.982 581.536 370.09 571.158C368.98 569.632 368.053 568.736 366.749 567.396C364.832 565.859 363.045 564.634 361.025 563.24C355.216 563.167 351.474 563.016 345.873 561.12C335.059 557.504 326.13 549.73 321.06 539.518C319.386 536.71 317.849 530.735 317.061 527.564C316.502 520.26 316.583 516.255 317.726 509.079C316.869 507.236 316.06 506.124 314.932 504.467C313.121 501.126 311.141 501.482 310.317 497.357C309.979 495.665 308.008 492.529 307.032 490.922C305.93 488.265 305.047 485.959 303.326 483.646L303.145 483.093C302.845 481.44 300.133 474.867 299.391 472.85C297.75 468.393 296.588 464.546 295.295 459.962C292.249 450.588 290.204 431.956 289.657 422.173C289.686 416.017 289.569 409.849 289.927 403.711C290.442 394.867 291.981 386.709 293.36 378.055C293.928 374.618 295.485 368.781 296.332 365.188C297.843 357.076 305.088 340.12 308.767 332.642C313.788 322.683 321.712 310.398 328.278 301.445C332.279 296.341 336.737 291.152 341.337 286.591C345.221 282.74 349.641 279.13 353.381 275.165L353.915 274.626C352.135 270.933 350.646 264.648 349.939 260.636C348.391 248.28 347.84 234.494 351.146 222.309C352.997 213.711 357.172 203.379 362.886 196.594C363.94 195.639 363.84 195.645 365.212 195.33C368.924 196.282 369.309 203.956 370.275 207.7C373.14 218.815 383.994 236.53 394.38 241.892C394.488 240.067 394.743 239.077 393.932 237.438C391.607 233.909 394.473 232.724 394.469 232.313C394.372 221.28 394.573 177.934 394.407 169.317Z" fill="#F93A49"/>
<path d="M617.443 210.888C625.728 220.786 629.996 243.372 628.501 256.112C627.238 266.868 625.145 274.603 620.637 284.323C625.593 289.477 630.208 293.652 634.828 299.229C664.753 335.333 676.398 375.889 675.923 422.107C675.2 492.571 633.889 549.111 572.316 580.45C567.291 583.007 558.879 586.101 554.418 588.994C561.336 607.336 552.031 631.139 534.056 639.346C532.728 639.953 528.197 641.868 527.498 642.645C526.776 642.398 519.194 644.329 516.599 644.445C503.799 645.009 493.946 641.027 484.468 632.8C480.092 628.32 476.589 623.955 474.453 618.019C476.253 618.289 482.22 622.789 485.071 624.009C493.857 627.767 506.062 627.933 514.903 624.592C524.995 620.784 533.187 613.164 537.714 603.377C542.661 592.427 543.326 581.64 539.193 570.242C537.328 565.101 531.897 563.637 527.038 561.606C544.643 556.017 567.708 540.564 581.192 527.969C617.478 493.981 641.347 446.077 644.252 396.257C646.704 354.126 633.433 307.351 604.906 275.62C616.574 263.837 622.059 244.992 620.564 228.609C620.035 222.84 617.891 216.743 617.443 210.888Z" fill="#DE233A"/>
<path d="M394.407 169.317L394.658 169.215L394.7 231.493C398.022 229.45 409.999 223.404 413.591 223.513C433.486 216.819 455.358 216.103 474.507 225.616C474.835 225.778 475.16 225.943 475.484 226.111C475.341 227.401 474.689 229.25 474.299 230.554C481.208 233.522 486.708 235.452 494.189 235.219C497.638 231.277 496.426 229.98 497.893 225.922C507.325 219.158 528.61 218.747 539.618 220.909C546.435 222.247 576.835 230.274 575.387 239.488C572.22 244.19 563.05 243.943 557.991 245.665C552.765 246.468 547.528 247.177 542.279 247.79C551.556 253.551 567.09 270.685 570.991 281.497C571.478 282.882 571.714 285.259 570.736 286.507C567.681 290.401 558.659 288.291 554.642 287.673C537.521 285.039 521.859 278.705 507.677 268.765C507.132 282.898 500.319 301.128 490.806 311.812C486.886 316.215 480.602 323.119 475.129 316.531C464.484 303.72 457.432 285.207 457.285 268.524C443.895 278.26 427.487 281.889 411.351 284.084C370.931 289.581 417.38 252.333 426.228 244.414C419.593 243.406 412.903 242.247 406.276 241.152C403.271 242.275 401.336 243.453 398.532 245.047C396.844 244.128 395.562 243.567 394.581 241.875L394.38 241.892C394.488 240.067 394.743 239.077 393.932 237.438C391.607 233.909 394.472 232.724 394.469 232.313C394.372 221.28 394.573 177.934 394.407 169.317Z" fill="#5E9F58"/>
<path d="M394.581 241.874C394.635 240.667 394.72 239.462 394.839 238.26L395.303 238.028C399.42 239.653 401.969 240.21 406.276 241.151C403.271 242.275 401.336 243.453 398.532 245.047C396.844 244.128 395.562 243.566 394.581 241.874Z" fill="#4E4969"/>
<path d="M484.468 632.8C493.946 641.027 503.799 645.009 516.599 644.445C519.194 644.329 526.776 642.398 527.498 642.645C527.683 647.098 525.953 663.571 525.069 668.086C533.473 680.951 531.511 682.739 517.41 682.087C514.664 685.269 514.026 686.517 510.156 688.131C507.484 687.73 504.819 687.309 502.154 686.868C501.095 687.343 497.608 689.56 496.986 690.36C494.715 693.284 490.505 691.171 489.242 692.21C485.635 695.172 484.151 699.007 478.524 698.181C470.568 696.161 468.15 697.586 460.738 701.333C450.723 699.915 452.508 699.116 443.871 702.769C440.457 704.21 425.363 702.53 421.516 701.356C414.452 706.848 413.626 707.06 405.306 703.449C403.522 704.202 391.626 710.22 391.336 706.095C390.993 701.19 392.758 694.527 393.356 689.479C390.494 685.849 385.815 676.077 384.103 671.728C387.76 669.082 392.132 664.513 396.489 661.443C408.099 652.621 422.15 648.442 436.834 649.539C459.058 651.204 468.826 649.473 484.468 632.8Z" fill="#FCC050"/>
<path d="M525.069 668.086C533.473 680.951 531.511 682.74 517.41 682.087C514.664 685.269 514.026 686.517 510.156 688.131C507.484 687.73 504.819 687.309 502.154 686.868C501.095 687.343 497.608 689.56 496.986 690.36C494.715 693.284 490.505 691.171 489.242 692.21C485.635 695.172 484.152 699.008 478.524 698.181C470.568 696.161 468.15 697.586 460.738 701.333C450.723 699.915 452.508 699.116 443.872 702.769C440.457 704.21 425.363 702.53 421.517 701.356C414.452 706.848 413.626 707.06 405.306 703.449C403.522 704.202 391.626 710.22 391.336 706.095C390.993 701.19 392.758 694.527 393.356 689.479C430.269 686.617 466.165 685.219 502.057 674.586C509.353 672.423 518.175 671.187 525.069 668.086Z" fill="#F58030"/>
<path d="M372.375 631.973C373.284 631.355 378.263 624.778 379.558 623.264C383.222 618.973 387.374 615.122 391.931 611.793C399.718 606.208 415.24 599.128 424.193 598.217C439.542 596.656 453.759 601.65 468.069 592.918C469.073 592.304 471.653 590.894 472.762 590.658C470.506 599.244 470.973 609.831 474.453 618.019C476.589 623.955 480.092 628.32 484.468 632.8C468.826 649.473 459.058 651.204 436.835 649.539C422.15 648.442 408.099 652.621 396.489 661.443C392.132 664.513 387.76 669.082 384.103 671.728C380.362 662.879 377.932 656.194 375.201 647.048C375.147 646.368 374.369 643.251 374.189 642.305C373.565 638.864 372.96 635.422 372.375 631.973Z" fill="#FBDDA2"/>
<path d="M370.09 571.158C373.97 569.956 380.373 569.23 384.701 568.102C421.567 558.501 466.617 558.057 501.988 544.573C502.447 549.475 504.317 555.322 505.174 560.513C487.879 565.437 478.775 573.622 472.762 590.658C471.653 590.894 469.073 592.304 468.069 592.918C453.759 601.65 439.542 596.656 424.193 598.217C415.24 599.128 399.718 606.208 391.931 611.793C387.374 615.122 383.222 618.973 379.558 623.264C378.263 624.778 373.284 631.355 372.375 631.973C371.947 629.868 371.726 628.327 371.467 626.211C371.297 620.831 370.88 616.041 370.858 610.499C370.813 599.113 373.982 581.536 370.09 571.158Z" fill="#FCC050"/>
<path d="M452.543 539.143C462.77 534.111 459.576 537.641 469.768 536.563C471.418 536.389 475.071 532.913 477.848 532.99C481.714 533.122 484.623 535.373 488.671 534.597C491.471 534.06 498.539 527.525 501.045 530.7C502.992 533.168 502.351 541.464 501.988 544.573C466.617 558.057 421.567 558.501 384.702 568.103C380.373 569.23 373.97 569.957 370.09 571.158C368.98 569.632 368.053 568.736 366.749 567.396C366.639 566.28 365.964 564.159 365.637 562.989C378.077 560.757 386.171 555.311 394.272 546.014C398.52 546.493 401.881 547.072 405.932 545.504C411.166 542.87 415.395 544.326 421.018 543.909C423.834 543.701 428.689 542.275 430.906 542.094C439.538 541.395 439.839 541.796 447.603 538.123L452.543 539.143Z" fill="#F58030"/>
<path d="M383.303 485.588C392.793 491.888 398.953 500.837 401.24 512.037C401.83 514.93 401.614 517.016 401.962 519.53C401.51 529.356 401.267 533.639 396.284 542.596C399.026 543.562 404.044 544.736 405.932 545.504C401.881 547.072 398.521 546.493 394.272 546.014C386.171 555.311 378.077 560.757 365.637 562.989C365.964 564.159 366.639 566.28 366.749 567.396C364.832 565.859 363.045 564.634 361.025 563.24C355.216 563.167 351.475 563.016 345.873 561.12C335.059 557.505 326.13 549.73 321.06 539.518C321.378 539.17 321.675 538.772 322.044 538.954C324.674 540.228 329.862 542.835 332.317 543.851C340.282 547.146 348.034 547.173 356.258 544.983C366.949 542.125 376.029 535.061 381.433 525.401C390.135 510.025 387.575 500.999 383.303 485.588Z" fill="#DE233A"/>
<path d="M373.646 480.455C374.825 476.469 375.761 473.746 379.088 470.931C387.76 463.585 401.487 463.233 409.18 471.958C410.13 474.105 411.135 476.516 412.154 478.605C416.036 481.286 422.123 482.622 426.978 485.669L429.33 488.52C430.55 494.958 429.631 499.743 425.873 505.151C420.512 512.864 411.656 519.457 401.962 519.53C401.614 517.016 401.83 514.93 401.239 512.037C398.953 500.836 392.792 491.888 383.303 485.588C381.039 483.815 376.372 481.718 373.646 480.455Z" fill="#FCC050"/>
<path d="M464.392 473.901C465.187 466.906 476.353 441.218 486.214 449.623C489.964 452.82 481.073 460.634 479.347 463.31C473.584 472.24 471.166 485.442 479.609 493.618C483.348 497.241 492.227 503.513 485.04 508.353C484.317 508.851 483.024 509.129 482.209 508.816C473.387 505.421 465.323 493.093 464.233 484.009C455.528 486.368 445.687 486.581 436.703 486.226C433.995 486.121 429.256 485.291 426.978 485.669C422.123 482.622 416.036 481.286 412.154 478.605C411.134 476.516 410.13 474.106 409.18 471.958L409.848 472.043C412.954 472.464 418.322 474.148 422.158 474.793C436.17 477.118 450.491 476.813 464.392 473.901Z" fill="#9D143E"/>
<path d="M362.886 196.594C365.399 200.088 361.108 212.411 360.307 217.319C357.53 234.325 362.318 250.445 374.262 262.814C371.244 264.261 355.238 274.846 354.362 274.984L353.915 274.626C352.134 270.933 350.646 264.648 349.939 260.636C348.391 248.28 347.84 234.494 351.146 222.309C352.997 213.711 357.172 203.379 362.886 196.594Z" fill="#DE233A"/>
<path d="M337.822 377.899C361.616 376.449 387.718 378.409 411.679 378.07C422.942 377.911 434.834 378.867 444.547 384.993C451.013 385.282 456.637 385.531 463.114 385.021C465.388 383.077 468.895 381.366 471.773 380.717C476.064 379.748 483.217 378.411 487.662 378.281C503.652 377.81 519.804 377.693 535.802 377.695C548.239 377.759 560.471 377.518 572.915 378.031C577.194 378.208 580.632 381.173 581.42 385.476C582.405 390.838 574.499 393.492 571.355 396.053C570.099 397.076 569.555 402.313 569.176 403.932C567.689 412.908 565.411 420.972 560.096 428.554C552.271 439.708 543.743 443.242 530.746 445.424C521.77 446.514 506.8 446.336 498.056 444.509C481.108 440.967 471.306 430.199 466.281 413.993C464.431 408.022 464.62 404.43 461.221 399.185C456.679 398.154 451.724 398.362 447.116 398.679C443.663 401.213 443.033 404.92 442.068 408.98C438.298 424.854 429.036 438.576 412.819 443.435C403.252 446.297 394.697 446.301 384.827 445.865C376.109 445.533 366.997 444.142 359.229 439.967C348.148 434.011 341.5 421.818 338.596 409.965C337.401 405.086 336.96 400.015 335.454 395.211C329.844 392.704 323.573 387.976 328.906 380.726C330.831 378.109 334.765 378.024 337.822 377.899Z" fill="#521732"/>
<path d="M370.937 387.223C376.504 386.879 382.495 386.941 388.065 387.041C382.106 399.003 371.705 410.71 361.807 419.709C360.197 421.111 356.339 425 354.422 424.826C351.281 421.489 350.163 414.892 349.815 410.462C349.103 401.394 353.343 392.101 362.042 388.447C365.089 387.169 367.653 387.316 370.937 387.223Z" fill="#78405A"/>
<path d="M500.682 387.223C505.305 386.929 509.546 386.949 514.162 386.995C509.816 399.007 496.588 413.865 487.064 422.428C485.167 424.247 484.113 424.772 481.834 425.861C475.237 417.31 475.5 400.447 483.545 392.769C489.292 387.285 493.498 387.455 500.682 387.223Z" fill="#78405A"/>
<path d="M524.169 327.21C526.641 327.104 529.086 327.727 531.206 329.004C534.431 330.95 535.339 333.32 536.196 336.633C535.524 339.838 534.373 342.74 531.797 344.929C518.055 356.611 494.483 368.632 476.238 368.776C473.21 368.492 471.839 368.628 469.081 367.177C463.426 364.267 461.797 357.48 465.883 352.478C470.178 347.217 477.284 347.74 483.395 346.138C488.014 344.951 492.521 343.364 496.866 341.392C500.01 339.939 503.876 338.063 506.808 336.307C513.08 332.55 516.842 328.785 524.169 327.21Z" fill="#9D143E"/>
<path d="M365.224 290.979C366.479 291.032 368.02 291.027 369.149 291.583C370.902 292.435 372.199 294.005 372.706 295.886C374.548 302.594 369.274 314.375 365.752 319.908C359.308 330.035 350.693 341.672 338.541 344.784C315.868 341.8 342.218 293.009 365.224 290.979Z" fill="#FD676D"/>
<path d="M387.03 321.904C406.909 321.346 422.745 331.772 434.355 347.463C441.299 356.848 437.962 367.6 425.526 364.343C419.191 361.245 413.85 351.049 403.715 345.704C400.092 343.777 396.153 342.506 392.09 341.948C383.538 340.847 375.544 342.577 372.458 332.544C374.269 324.082 378.892 322.336 387.03 321.904Z" fill="#9D143E"/>
<path d="M346.576 489.806C361.04 489.022 355.494 504.757 341.23 508.152C333.76 508.639 330.532 504.483 334.492 497.89C337.393 493.058 341.368 491.088 346.576 489.806Z" fill="#FD676D"/>
<path d="M501.945 570.146C516.081 570.277 508.584 586.336 495.742 588.681C479.3 588.569 489.354 572.98 501.945 570.146Z" fill="#FD676D"/>
<path d="M487.554 470.904L488.265 471.348C489.281 473.36 490.188 475.569 491.088 477.64C493.012 478.999 495.8 480.405 497.924 481.556C497.847 483.375 497.534 485.275 497.287 487.087C494.738 489.551 492.058 491.115 488.373 491.019C485.453 490.938 482.699 489.644 480.768 487.45C477.991 484.233 478.315 482.093 478.57 478.269C481.355 474.152 483.197 473.036 487.554 470.904Z" fill="#FCC050"/>
<path d="M328.545 351.958C336.58 352.231 334.746 359.907 332.848 365.307C331.418 369.371 328.981 371.348 325.182 373.009C318.678 372.018 318.023 366.451 320.017 361.072C321.522 357.013 324.595 353.729 328.545 351.958Z" fill="#FD676D"/>
<path d="M564.348 452.886C566.021 453.33 566.963 453.659 567.755 455.246C568.168 458.054 559.744 471.36 557.651 474.202C557.284 474.701 555.585 475.427 554.928 475.697C553.935 475.264 551.437 473.889 551.827 472.754C553.599 467.586 560.528 456.273 564.348 452.886Z" fill="#DE233A"/>
<path d="M545.083 448.035L545.423 448.004C547.142 447.865 548.247 447.715 549.568 448.831C549.776 449.275 550.24 450.036 550.131 450.391C549.174 453.551 540.445 466.505 538.502 468.119C536.586 468.803 535.953 469.139 534.327 467.787C532.589 463.6 542.14 450.874 545.083 448.035Z" fill="#DE233A"/>
<path d="M510.566 498.523C511.91 497.905 513.482 498.083 514.656 498.983C515.826 499.879 516.409 501.35 516.162 502.81C515.919 504.266 514.888 505.468 513.486 505.931C511.477 506.599 509.295 505.58 508.519 503.61C507.742 501.64 508.642 499.404 510.566 498.523Z" fill="#FCC050"/>
<path d="M519.094 484.897C520.581 484.348 522.234 485.094 522.809 486.569C523.385 488.049 522.67 489.713 521.199 490.316C520.229 490.71 519.117 490.551 518.294 489.899C517.471 489.246 517.066 488.203 517.232 487.164C517.398 486.129 518.109 485.264 519.094 484.897Z" fill="#FCC050"/>
<path d="M487.554 470.904C487.021 469.653 486.395 468.664 486.612 467.378C487.516 466.435 486.975 466.706 488.315 466.59C489.733 467.482 489.246 466.903 489.96 468.262C489.895 469.741 489.358 470.417 488.265 471.348L487.554 470.904Z" fill="#FCC050"/>
<path d="M375.201 647.048C372.031 648.809 366.014 649.612 362.447 649.705C347.029 650.118 331.554 649.937 316.123 649.933L232.59 649.921L164.677 649.945C151.786 649.952 138.472 650.184 125.616 649.555C119.957 649.273 112.128 646.604 107.015 644.228C92.0992 637.319 80.605 624.681 75.1402 609.174C73.2226 603.636 72.1385 597.838 71.9241 591.979C71.5301 582.52 71.8163 571.018 71.8171 561.44L71.8322 504.116L71.8202 331.457L71.8353 178.467L71.8102 130.027C71.792 111.846 69.991 95.4119 78.227 78.5522C85.1606 64.6409 97.3041 54.0281 112.018 49.0194C115.892 47.6985 123.649 46.1162 127.749 46.0582C142.159 45.8558 156.797 45.9844 171.202 45.9844L257.901 45.9794L324.54 45.9609C333.671 45.9508 350.976 45.4329 359.663 46.183C367.205 46.8994 374.548 49.0079 381.32 52.4017C394.384 59.0622 404.414 70.4514 409.373 84.2498C414.587 99.1943 413.046 117.87 413.05 133.731L413.093 199.535C413.1 203.772 412.54 220.941 413.591 223.513C409.999 223.404 398.022 229.45 394.7 231.492L394.658 169.215L394.407 169.317C394.248 167.094 394.194 165.554 394.218 163.327L178.105 163.336C150.035 163.231 119.894 163.97 91.9845 163.249L91.9965 452.646L91.9957 544.975L92.005 573.035C92.0116 577.341 92.2333 584.467 91.8799 588.638C92.9748 606.837 106.368 625.191 125.356 628.432C135.467 630.158 150.503 629.274 161.106 629.27L223.211 629.262H313.396H343.028C352.253 629.258 363.06 630.297 371.467 626.211C371.725 628.327 371.946 629.868 372.375 631.973C372.96 635.422 373.564 638.864 374.188 642.305C374.368 643.251 375.147 646.368 375.201 647.048Z" fill="#4E4969"/>
<path d="M91.8798 588.639C91.4831 586.588 91.5824 579.802 91.5812 577.407L91.5874 555.415L91.6087 472.681L91.5801 204.917L91.6106 138.563C91.6071 126.992 90.898 110.233 92.8079 99.3066C94.493 89.6651 103.193 77.5452 111.669 72.6485C115.208 70.6042 123.13 67.0965 127.024 66.9107C133.893 66.5836 163.198 65.7478 168.339 66.9586C170.242 68.3568 171.68 70.3876 171.801 72.7957C172.924 95.3241 190.701 91.5742 207.764 91.5634L246.519 91.5619L280.695 91.5634C288.411 91.5611 299.224 92.7978 305.787 88.8443C315.133 83.2147 309.035 72.1619 317.495 66.5774L341.229 66.5094C357.553 66.4739 369.543 65.8362 382.134 78.0063C395.851 91.2641 394.557 105.125 394.534 122.384C394.507 137.984 394.295 153.746 394.658 169.215L394.407 169.317C394.248 167.094 394.194 165.554 394.218 163.328L178.105 163.336C150.035 163.231 119.893 163.97 91.9845 163.25L91.9964 452.647L91.9957 544.975L92.0049 573.035C92.0115 577.341 92.2332 584.467 91.8798 588.639Z" fill="#F4D5D3"/>
<path d="M245.381 120.15C247.384 120.162 247.373 119.82 248.664 120.765C249.366 122.397 248.888 125.56 248.831 127.518C257.27 120.636 262.728 130.909 258.219 138.938C252.676 143.787 253.837 140.27 249.43 139.437C248.867 139.866 248.346 140.243 247.771 140.654C246.234 140.756 246.924 140.91 245.605 140.276C244.968 137.303 245.344 124.021 245.381 120.15Z" fill="#1A191A"/>
<path d="M251.96 127.678C254.136 127.889 254.899 128.953 256.461 130.419L256.471 136.052C255.509 136.952 254.385 137.797 253.348 138.624C247.162 137.555 247.124 130.949 251.96 127.678Z" fill="#F4D5D3"/>
<path d="M208.902 120.113C209.509 120.112 211.237 120.047 211.531 120.524C212.715 122.444 212.111 126.718 212.082 128.992L222.101 129.018C222.15 126.493 220.512 118.267 225.616 120.517C226.149 125.504 225.839 135.248 225.815 140.602C223.89 140.677 223.553 140.903 222.402 139.861C221.646 137.809 222.09 134.299 222.116 131.947C218.845 131.841 215.334 131.934 212.042 131.961C212.026 134.339 212.821 138.721 211.193 140.411C210.199 140.693 210.271 140.706 209.29 140.394C208.483 137.802 208.868 123.727 208.902 120.113Z" fill="#1A191A"/>
<path d="M233.32 125.2C237.886 124.839 239.153 125.146 241.876 128.775C241.919 131.165 242.453 138.789 241.652 140.452C239.653 140.942 239.57 140.787 238.359 139.356C234.265 140.001 235.077 143.174 229.867 139.517C223.878 131.707 235.485 132.732 238.005 130.846C238.577 129.025 237.752 127.711 235.891 127.27C234.289 127.73 233.511 128.637 232.251 129.749C230.999 130.049 231.023 130.162 229.859 129.697C228.825 127.33 231.629 126.075 233.32 125.2Z" fill="#1A191A"/>
<path d="M235.814 134.116C237.168 133.929 237.723 133.7 238.542 134.785C238.441 136.832 237.21 137.694 235.592 138.681C233.969 138.635 233.566 138.492 232.403 137.466C231.935 136.098 231.95 136.781 232.461 135.345C233.94 134.122 233.641 134.495 235.814 134.116Z" fill="#F4D5D3"/>
<path d="M271.136 121.676C272.675 121.625 272.755 121.591 274.231 121.909C274.873 123.8 273.77 122.894 275.029 124.992C276.031 125.174 276.411 125.256 277.378 125.568C277.735 126.808 277.698 126.159 277.21 127.574C275.897 128.042 275.192 128.345 274.797 129.725C274.318 131.401 274.391 136.179 275.164 137.628C277.734 138.627 277.496 138.326 277.693 140.877C267.877 143.071 272.472 132.078 270.755 128.054L269.557 127.743C268.786 126.833 269.084 127.367 269.111 125.8C271.446 124.107 271.047 124.456 271.136 121.676Z" fill="#1A191A"/>
<path d="M263.222 125.23C264.368 125.207 265.084 125.049 266.018 125.678C266.489 128.393 266.302 137.005 266.312 140.361C265.17 140.648 264.322 140.863 263.383 140.118C262.959 137.299 263.215 128.709 263.222 125.23Z" fill="#1A191A"/>
<path d="M264.035 119.629C264.923 119.28 265.928 119.685 266.327 120.552C266.724 121.418 266.377 122.445 265.534 122.891C264.945 123.203 264.232 123.163 263.681 122.788C263.13 122.413 262.832 121.764 262.906 121.102C262.98 120.439 263.415 119.872 264.035 119.629Z" fill="#1A191A"/>
<path d="M317.061 527.564L197.824 527.544L165.09 527.583C161.111 527.591 151.01 527.83 147.42 527.274C140.497 526.223 134.06 523.083 128.969 518.279C122.868 512.416 118.64 502.536 118.572 494.081C118.443 478.103 131.141 462.526 147.175 460.39C152.487 459.684 158.478 459.966 163.833 459.969L192.275 460.004L295.295 459.962C296.588 464.546 297.75 468.393 299.391 472.85C300.133 474.866 302.845 481.44 303.145 483.093L303.326 483.645C305.047 485.959 305.93 488.265 307.031 490.922C308.007 492.529 309.979 495.665 310.317 497.356C311.141 501.481 313.121 501.126 314.931 504.467C316.06 506.124 316.868 507.236 317.726 509.079C316.583 516.255 316.501 520.26 317.061 527.564Z" fill="#5E9F58"/>
<path d="M292.781 485.982C290.451 486.021 288.279 486.67 286.407 485.492C285.966 484.094 285.991 484.777 286.305 483.368C288.334 482.557 300.133 483.035 303.146 483.093L303.326 483.646C303.356 484.604 303.368 484.542 303.029 485.434C301.355 486.399 298.602 486.04 296.555 485.986C296.443 490.953 296.95 499.307 296.389 503.853L295.784 504.301C294.261 504.309 294.184 504.548 293.046 503.911C292.523 501.49 292.776 489.003 292.781 485.982Z" fill="#FEFEFE"/>
<path d="M307.031 490.922C308.007 492.529 309.979 495.665 310.317 497.356C311.14 501.481 313.121 501.126 314.931 504.467L306.944 504.513C306.904 499.983 306.934 495.452 307.031 490.922Z" fill="#FEFEFE"/>
<path d="M190.502 482.533C196.454 483.024 200.138 485.469 200.823 491.675C201.624 498.94 198.67 504.008 191.362 504.722C189.946 504.707 188.117 504.46 186.679 504.309C183.591 502.177 181.414 499.917 180.923 496.113C179.85 487.782 182.944 483.815 190.502 482.533Z" fill="#FEFEFE"/>
<path d="M189.236 485.878C198.144 485.368 200.066 496.885 192.358 501.435C183.162 501.752 181.898 490.095 189.236 485.878Z" fill="#5E9F58"/>
<path d="M222.838 483.116L227.892 483.105C227.843 486.635 228.455 502.293 227.332 504.247C225.888 504.66 225.857 504.579 224.42 504.406C223.261 502.772 223.79 496.326 223.855 494.035C223.805 492.803 223.654 491.428 223.544 490.185C222.03 493.425 219.088 503.629 216.154 504.518C213.953 503.533 209.801 491.567 208.666 488.744C208.763 491.787 209.728 502.548 207.68 504.463C206.565 504.591 206.387 504.765 205.455 504.239C204.506 501.405 205.012 486.998 205.063 483.101L209.789 483.128C212.29 487.836 213.701 493.12 216.449 498.156C218.785 493.348 220.608 488.076 222.838 483.116Z" fill="#FEFEFE"/>
<path d="M232.488 483.058C235.437 483.012 242.54 482.607 244.77 483.854C251.402 487.577 248.628 495.762 241.77 497.395L236.318 497.449C236.354 499.377 236.705 502.81 235.685 504.251C234.349 504.498 234.252 504.409 232.946 504.205C231.988 502.725 232.466 486.013 232.488 483.058Z" fill="#FEFEFE"/>
<path d="M236.398 486.009C240.921 485.916 246.92 486.639 243.345 492.892C240.794 494.19 239.097 493.996 236.271 494.012C236.252 491.343 236.294 488.674 236.398 486.009Z" fill="#5E9F58"/>
<path d="M166.275 482.835C170.813 482.429 178.812 484.144 176.82 490.385C172.585 492.506 171.138 479.826 162.993 489.231L162.623 489.663C162.428 492.374 162.528 494.742 162.606 497.453C165.614 501.038 167.056 502.331 171.637 500.493C173.002 498.732 173.422 497.283 175.966 497.407C178.687 499.701 174.488 502.903 172.767 504.243C154.875 507.565 154.04 486.141 166.275 482.835Z" fill="#FEFEFE"/>
<path d="M268.871 483.147C272.461 483.097 280.002 482.568 283.083 483.344C283.524 484.279 283.4 483.765 283.057 485.028C281.135 486.67 275.577 486.036 272.626 486.056L272.613 492.038C275.794 492.038 280.239 491.432 282.803 493.294L282.838 493.885C280.378 495.681 275.881 495.225 272.812 495.155C272.558 496.708 272.675 499.612 272.69 501.285C275.845 501.339 280.384 500.64 282.942 501.926C283.584 503.108 283.431 502.467 283.209 503.954C281.286 504.981 271.528 504.575 268.837 504.548L268.871 483.147Z" fill="#FEFEFE"/>
<path d="M251.613 483.059C252.958 483.024 254.744 482.839 255.822 483.514C256.292 486.118 256.031 498.118 256.019 501.316C259.05 501.378 262.573 500.655 265.09 501.772C265.701 503.042 265.478 502.776 265.297 504.433C260.705 504.568 256.329 504.491 251.738 504.413L251.613 483.059Z" fill="#FEFEFE"/>
<path d="M296.332 365.188C290.96 364.609 287.401 364.361 282.787 361.034C278.741 358.168 276.014 353.798 275.217 348.904C274.373 343.613 275.765 338.21 279.061 333.986C283.946 327.678 292.99 324.758 300.529 327.554C303.871 328.793 306.032 330.443 308.766 332.642C305.088 340.12 297.843 357.076 296.332 365.188Z" fill="#F4D5D3"/>
<path d="M349.939 260.636C347.6 260.731 345.665 260.837 343.322 260.459C337.921 259.629 333.097 256.617 329.982 252.127C319.832 237.289 333.425 218.039 351.146 222.309C347.84 234.494 348.391 248.28 349.939 260.636Z" fill="#F4D5D3"/>
<path d="M289.657 422.173C289.418 420.686 289.268 419.381 289.247 417.89C289.241 417.5 288.987 416.221 288.73 416.075C285.96 414.522 282.911 413.197 280.538 411.069C277.21 408.083 275.167 402.904 274.947 398.567C274.677 393.175 276.588 387.899 280.249 383.929C283.745 380.134 288.25 378.176 293.36 378.055C291.981 386.709 290.442 394.867 289.926 403.711C289.568 409.849 289.686 416.017 289.657 422.173Z" fill="#F4D5D3"/>
<path d="M328.278 301.445C326.317 298.388 326.308 294.394 326.789 290.89C327.467 285.793 330.218 281.202 334.393 278.2C340.588 273.714 346.379 273.961 353.381 275.165C349.641 279.13 345.221 282.74 341.337 286.591C336.737 291.152 332.279 296.341 328.278 301.445Z" fill="#F4D5D3"/>
<path d="M137.013 274.725C147.712 272.956 157.805 280.24 159.496 290.952C161.187 301.663 153.83 311.702 143.107 313.315C132.493 314.912 122.579 307.646 120.905 297.045C119.231 286.443 126.424 276.476 137.013 274.725Z" fill="#FBBDB0"/>
<path d="M149.22 284.454C151.016 285.189 151.253 285.505 151.444 287.309C150.198 291.049 141.376 299.995 138.085 302.304C135.937 302.235 133.658 299.46 132.075 297.891C130.474 296.231 128.917 294.626 129.581 292.174C132.209 290.467 136.246 295.381 137.728 296.989C139.995 294.255 146.718 286.632 149.22 284.454Z" fill="#DE233A"/>
<path d="M189.885 326.58C200.453 325.519 209.878 333.227 210.936 343.795C211.994 354.362 204.283 363.785 193.716 364.84C183.152 365.894 173.734 358.188 172.676 347.625C171.619 337.062 179.323 327.641 189.885 326.58Z" fill="#FBBDB0"/>
<path d="M200.296 335.915C201.341 335.978 201.28 335.981 202.242 336.412C202.685 337.055 203.255 337.728 202.905 338.626C201.31 342.716 192.746 351.996 189.473 354.199C186.724 352.351 185.872 351.489 183.419 349.144C182.037 347.669 179.825 344.718 181.922 342.947C184.714 343.042 187.166 346.274 189.213 348.344C192.523 344.402 196.733 339.577 200.296 335.915Z" fill="#DE233A"/>
<path d="M136.479 378.24C146.883 376.149 157.005 382.91 159.057 393.322C161.11 403.731 154.311 413.827 143.893 415.843C133.529 417.847 123.496 411.092 121.454 400.734C119.412 390.379 126.13 380.32 136.479 378.24Z" fill="#F4D5D3"/>
<path d="M136.572 326.981C143.355 325.625 150.342 328.03 154.854 333.273C159.365 338.517 160.7 345.785 158.346 352.289C155.993 358.794 150.316 363.525 143.494 364.668C133.173 366.397 123.373 359.524 121.483 349.231C119.592 338.938 126.31 329.032 136.572 326.981Z" fill="#F4D5D3"/>
<path d="M238.831 327.056C249.144 324.92 259.242 331.53 261.41 341.837C263.579 352.144 257.001 362.263 246.702 364.464C236.355 366.675 226.181 360.061 224.003 349.708C221.824 339.355 228.47 329.202 238.831 327.056Z" fill="#F4D5D3"/>
<path d="M292.933 275.254C303.481 274.699 312.478 282.807 313.019 293.356C313.559 303.905 305.438 312.891 294.888 313.417C284.36 313.942 275.395 305.84 274.856 295.312C274.316 284.784 282.405 275.808 292.933 275.254Z" fill="#F4D5D3"/>
<path d="M241.528 223.975C252.018 223.387 261.014 231.38 261.666 241.866C262.319 252.352 254.382 261.398 243.9 262.114C233.326 262.837 224.185 254.815 223.527 244.238C222.869 233.66 230.946 224.568 241.528 223.975Z" fill="#F4D5D3"/>
<path d="M190.221 275.318C200.656 274.587 209.736 282.389 210.584 292.816C211.432 303.242 203.731 312.41 193.314 313.374C186.472 314.007 179.817 310.914 175.889 305.276C171.962 299.637 171.367 292.323 174.332 286.124C177.298 279.925 183.365 275.798 190.221 275.318Z" fill="#F4D5D3"/>
<path d="M241.927 275.264C252.446 274.838 261.322 283.012 261.762 293.53C262.202 304.049 254.038 312.935 243.521 313.388C232.984 313.842 224.079 305.661 223.638 295.124C223.198 284.587 231.39 275.692 241.927 275.264Z" fill="#F4D5D3"/>
<path d="M238.677 378.413C249.017 376.133 259.235 382.71 261.441 393.067C263.648 403.421 256.998 413.591 246.626 415.727C236.359 417.836 226.313 411.266 224.128 401.015C221.944 390.765 228.441 380.67 238.677 378.413Z" fill="#F4D5D3"/>
<path d="M187.943 378.413C198.351 376.381 208.417 383.232 210.345 393.658C212.274 404.086 205.323 414.086 194.877 415.909C184.576 417.708 174.748 410.876 172.846 400.595C170.945 390.313 177.679 380.416 187.943 378.413Z" fill="#F4D5D3"/>
<path d="M292.818 224.029C303.31 223.367 312.356 231.328 313.031 241.819C313.707 252.31 305.758 261.366 295.268 262.057C284.758 262.747 275.681 254.78 275.004 244.269C274.327 233.758 282.306 224.691 292.818 224.029Z" fill="#F4D5D3"/>
<path d="M246.525 199.906C247.076 197.248 248.323 190.636 249.709 188.632L250.474 188.781C251.62 190.801 248.701 202.967 245.587 202.75C244.878 201.943 243.103 195.016 242.609 193.415C240.811 195.272 240.882 200.899 238.455 202.928L237.717 202.842C236.463 201.386 233.319 189.946 233.87 188.873L235.183 188.789C236.795 190.175 237.852 197.854 238.355 200.383C239.991 196.134 239.983 192.05 241.78 188.306L243.1 188.836C244.3 190.143 245.702 197.309 246.525 199.906Z" fill="#B5B4B4"/>
<path d="M138.292 200.464C138.995 198.134 139.777 195.828 140.634 193.55C141.379 191.595 142.128 189.355 144.013 188.498L144.732 188.929C145.45 190.307 144.771 200.748 144.467 202.612L144.088 202.716C143.044 200.511 143.235 197.367 143.277 194.95L143.151 193.611L142.681 193.426C141.641 194.755 139.797 200.325 138.375 202.921L138.068 203.474C135.82 199.957 134.433 194.803 133.317 193.183C131.862 194.699 133.385 201.719 132.264 202.816C130.68 201.411 131.059 191.212 131.018 188.659L133.049 188.847C135.013 190.533 137.208 197.695 138.292 200.464Z" fill="#B5B4B4"/>
<path d="M346.023 188.929C346.504 188.882 346.988 188.858 347.472 188.86C349.435 188.855 350.714 189.308 352.084 190.676C352.467 191.947 352.447 191.312 352.059 192.65C350.388 192.533 349.035 190.443 346.179 190.294C345.003 190.908 345.482 190.473 344.812 191.759C345.504 194.883 351.206 195.101 352.761 198.052C353.976 200.357 351.455 202.159 349.67 202.886C347.043 202.997 344.762 203.093 342.76 201.216C342.357 199.844 342.377 200.529 342.795 199.087C344.748 198.727 345.673 202.006 349.338 200.985C350.452 199.786 350.186 200.447 350.473 199.073C348.904 196.581 336.606 193.821 346.023 188.929Z" fill="#B5B4B4"/>
<path d="M184.5 189.446C186.357 189.164 193.86 188.887 195.215 189.935C193.735 190.523 192.646 190.38 191.031 190.371C190.949 193.087 190.952 195.894 190.921 198.619L190.98 202.169L190.426 202.576L189.613 202.278C189.284 200.895 189.397 192.456 189.393 190.365C187.085 190.47 186.083 190.815 184.5 189.446Z" fill="#B5B4B4"/>
<path d="M293.521 190.19L295.109 190.315C295.049 193.365 295.721 201.044 294.317 202.886L293.827 202.603C293.193 199.884 293.481 193.322 293.521 190.19Z" fill="#B5B4B4"/>
<path d="M293.521 190.191L292.959 190.247C291.347 190.396 290.821 190.593 289.423 189.976L289.577 189.566C292.176 188.952 296.801 188.839 299.289 189.853C298.256 190.578 296.395 190.382 295.109 190.315L293.521 190.191Z" fill="#B5B4B4"/>
<path d="M468.154 196.248C460.927 183.995 480.598 172.831 490.64 181.076C495.205 186.789 497.878 208.375 497.812 215.94C497.797 217.649 497.565 225.058 497.894 225.922C496.426 229.98 497.639 231.277 494.19 235.219C486.708 235.451 481.208 233.521 474.299 230.554C474.689 229.25 475.342 227.401 475.484 226.11C476.365 223.921 475.326 217.589 474.913 215.111C473.773 208.317 471.39 202.288 468.154 196.248Z" fill="#55874F"/>
<path d="M468.154 196.248C460.927 183.995 480.598 172.831 490.64 181.076C489.609 190.047 477.559 199.39 468.154 196.248Z" fill="#5E9F58"/>
</svg>
